ffmpeg version 2.2.4 Copyright (c) 2000-2014 the FFmpeg developers
  built on Jun 23 2014 16:31:17 with Apple LLVM version 5.1 (clang-503.0.40) (based on LLVM 3.4svn)
  configuration: --prefix=/usr/local/Cellar/ffmpeg/2.2.4 --enable-shared --enable-pthreads --enable-gpl --enable-version3 --enable-nonfree --enable-hardcoded-tables --enable-avresample --enable-vda --cc=clang --host-cflags= --host-ldflags= --enable-libx264 --enable-libfaac --enable-libmp3lame --enable-libxvid
  libavutil      52. 66.100 / 52. 66.100
  libavcodec     55. 52.102 / 55. 52.102
  libavformat    55. 33.100 / 55. 33.100
  libavdevice    55. 10.100 / 55. 10.100
  libavfilter     4.  2.100 /  4.  2.100
  libavresample   1.  2.  0 /  1.  2.  0
  libswscale      2.  5.102 /  2.  5.102
  libswresample   0. 18.100 /  0. 18.100
  libpostproc    52.  3.100 / 52.  3.100
Input #0, mov,mp4,m4a,3gp,3g2,mj2, from 'cc0.m4a':
  Metadata:
    major_brand     : M4A 
    minor_version   : 0
    compatible_brands: M4A mp42isom
    creation_time   : 2014-07-03 21:37:38
  Duration: 00:00:07.41, start: 0.000000, bitrate: 248 kb/s
    Stream #0:0(und): Audio: aac (mp4a / 0x6134706D), 44100 Hz, stereo, fltp, 246 kb/s (default)
    Metadata:
      creation_time   : 2014-07-03 21:37:38
      handler_name    : Core Media Audio
Output #0, mp3, to 'cc0.mp3':
  Metadata:
    major_brand     : M4A 
    minor_version   : 0
    compatible_brands: M4A mp42isom
    TSSE            : Lavf55.33.100
    Stream #0:0(und): Audio: mp3 (libmp3lame), 44100 Hz, stereo, fltp (default)
    Metadata:
      creation_time   : 2014-07-03 21:37:38
      handler_name    : Core Media Audio
Stream mapping:
  Stream #0:0 -> #0:0 (aac -> libmp3lame)
Press [q] to stop, [?] for help
size=     116kB time=00:00:07.41 bitrate= 128.0kbits/s    
video:0kB audio:116kB subtitle:0 data:0 global headers:0kB muxing overhead 0.273922%
